<svg width="16" height="13" viewBox="0 0 16 13" fill="none" xmlns="http://www.w3.org/2000/svg">
<g id="fluent:ios-arrow-24-regular" clip-path="url(#clip0_35_307)">
<path id="Vector" d="M7.99999 9.63605L2.18199 3.97472C2.13511 3.9281 2.07944 3.89126 2.01822 3.8663C1.957 3.84134 1.89144 3.82878 1.82533 3.82932C1.75922 3.82987 1.69387 3.84353 1.63308 3.8695C1.57228 3.89547 1.51723 3.93324 1.47113 3.98062C1.42502 4.028 1.38877 4.08406 1.36448 4.14555C1.34018 4.20703 1.32831 4.27273 1.32957 4.33883C1.33083 4.40493 1.34519 4.47012 1.37181 4.53064C1.39843 4.59115 1.43679 4.64579 1.48466 4.69138L7.65133 10.6914C7.74467 10.7822 7.86976 10.833 7.99999 10.833C8.13023 10.833 8.25532 10.7822 8.34866 10.6914L14.5153 4.69138C14.5632 4.64579 14.6016 4.59115 14.6282 4.53064C14.6548 4.47012 14.6692 4.40493 14.6704 4.33883C14.6717 4.27272 14.6598 4.20703 14.6355 4.14554C14.6112 4.08406 14.575 4.028 14.5289 3.98062C14.4828 3.93324 14.4277 3.89547 14.3669 3.8695C14.3061 3.84353 14.2408 3.82987 14.1747 3.82932C14.1085 3.82877 14.043 3.84134 13.9818 3.8663C13.9205 3.89125 13.8649 3.9281 13.818 3.97471L7.99999 9.63605Z" fill="#222222"/>
</g>
<defs>
<clipPath id="clip0_35_307">
<rect width="12" height="16" fill="white" transform="translate(0 12.5) rotate(-90)"/>
</clipPath>
</defs>
</svg>
