<svg width="80" height="80" viewBox="0 0 80 80" fill="none" xmlns="http://www.w3.org/2000/svg">
<circle cx="40" cy="40" r="40" transform="matrix(-1 0 0 1 80 0)" fill="#FFF6ED" fill-opacity="0.2"/>
<path d="M65 39C65.5523 39 66 39.4477 66 40C66 40.5523 65.5523 41 65 41V39ZM14.2929 40.7071C13.9024 40.3166 13.9024 39.6834 14.2929 39.2929L20.6569 32.9289C21.0474 32.5384 21.6805 32.5384 22.0711 32.9289C22.4616 33.3195 22.4616 33.9526 22.0711 34.3431L16.4142 40L22.0711 45.6569C22.4616 46.0474 22.4616 46.6805 22.0711 47.0711C21.6805 47.4616 21.0474 47.4616 20.6569 47.0711L14.2929 40.7071ZM65 41H15V39H65V41Z" fill="white"/>
</svg>
