<svg width="80" height="80" viewBox="0 0 80 80" fill="none" xmlns="http://www.w3.org/2000/svg">
<circle cx="40" cy="40" r="40" fill="#FFF6ED" fill-opacity="0.2"/>
<path d="M15 39C14.4477 39 14 39.4477 14 40C14 40.5523 14.4477 41 15 41V39ZM65.7071 40.7071C66.0976 40.3166 66.0976 39.6834 65.7071 39.2929L59.3431 32.9289C58.9526 32.5384 58.3195 32.5384 57.9289 32.9289C57.5384 33.3195 57.5384 33.9526 57.9289 34.3431L63.5858 40L57.9289 45.6569C57.5384 46.0474 57.5384 46.6805 57.9289 47.0711C58.3195 47.4616 58.9526 47.4616 59.3431 47.0711L65.7071 40.7071ZM15 41H65V39H15V41Z" fill="white"/>
</svg>
