<svg width="317" height="170" viewBox="0 0 317 170" fill="none" xmlns="http://www.w3.org/2000/svg">
<path d="M149.842 74.6675L151.732 75.3204L149.842 74.6675ZM109.218 20.8277L109.217 22.8277L109.218 20.8277ZM111.257 166.058L111.553 164.08L111.257 166.058ZM315.06 94.0483C316.162 94.1247 316.993 95.08 316.917 96.1819L315.671 114.139C315.595 115.241 314.639 116.072 313.538 115.996C312.436 115.919 311.604 114.964 311.681 113.862L312.788 97.9003L296.826 96.7931C295.724 96.7167 294.893 95.7615 294.969 94.6595C295.046 93.5576 296.001 92.7263 297.103 92.8027L315.06 94.0483ZM45.1285 3.98584C32.1107 12.73 15.6745 28.5439 8.43405 47.492C4.82938 56.9254 3.51818 67.0917 5.98371 77.57C8.44908 88.0475 14.7307 99.007 26.596 109.961L23.8827 112.9C11.5468 101.512 4.7713 89.8812 2.09006 78.4861C-0.591027 67.0918 0.861625 56.1028 4.69755 46.0642C12.3383 26.0684 29.4904 9.67148 42.8982 0.665386L45.1285 3.98584ZM26.596 109.961C50.2353 131.783 76.4127 134.525 98.724 126.056C121.146 117.546 139.788 97.6551 147.951 74.0147L151.732 75.3204C143.209 100.003 123.75 120.836 100.144 129.796C76.4261 138.798 48.6458 135.76 23.8827 112.9L26.596 109.961ZM147.951 74.0147C150.959 65.306 152.511 52.4228 147.787 41.8489C145.448 36.6125 141.556 31.9012 135.44 28.4754C129.301 25.0366 120.813 22.8349 109.217 22.8277L109.219 18.8277C121.304 18.8351 130.51 21.1289 137.395 24.9855C144.303 28.8551 148.769 34.2393 151.439 40.2174C156.735 52.0725 154.918 66.0947 151.732 75.3204L147.951 74.0147ZM109.217 22.8277C95.1722 22.8191 81.8356 30.5034 71.2831 42.6067C60.7408 54.6982 53.1475 71.0247 50.5873 87.8312C48.0279 104.633 50.5164 121.758 59.9132 135.601C69.2846 149.407 85.7068 160.213 111.553 164.08L110.961 168.036C84.2387 164.038 66.7215 152.753 56.6036 137.847C46.511 122.979 43.9603 104.773 46.6329 87.2288C49.3047 69.6896 57.2147 52.6558 68.2681 39.978C79.3113 27.312 93.6627 18.8181 109.219 18.8277L109.217 22.8277ZM111.553 164.08C153.109 170.298 195.424 160.071 231.529 144.649C267.625 129.231 297.337 108.695 313.609 94.5348L316.234 97.5521C299.663 111.974 269.598 132.738 233.1 148.328C196.61 163.914 153.514 174.403 110.961 168.036L111.553 164.08Z" fill="#EB8149"/>
</svg>
