<svg width="285" height="211" viewBox="0 0 285 211" fill="none" xmlns="http://www.w3.org/2000/svg">
<path d="M146.313 109.601L144.817 110.928L146.313 109.601ZM163.225 44.3096L163.992 46.1567L163.225 44.3096ZM216.951 179.252L215.921 177.538L216.951 179.252ZM1.10811 190.769C0.119433 191.261 -0.282762 192.462 0.209792 193.451L8.23629 209.562C8.72883 210.551 9.9296 210.953 10.9183 210.46C11.9069 209.968 12.3091 208.767 11.8166 207.778L4.68192 193.457L19.0031 186.323C19.9918 185.83 20.394 184.629 19.9014 183.641C19.4089 182.652 18.2081 182.25 17.2194 182.742L1.10811 190.769ZM215.981 4.21073C231.355 7.30378 252.593 15.6188 266.538 30.3503C273.48 37.6845 278.584 46.5739 280.318 57.1976C282.053 67.8207 280.447 80.3502 273.68 95.0122L277.312 96.6884C284.347 81.4448 286.152 68.1063 284.266 56.5531C282.38 45.0005 276.83 35.4053 269.443 27.6006C254.728 12.0545 232.604 3.475 216.77 0.289305L215.981 4.21073ZM273.68 95.0122C260.198 124.224 237.066 136.78 213.212 137.5C189.24 138.224 164.403 126.987 147.809 108.274L144.817 110.928C162.142 130.466 188.094 142.26 213.333 141.498C238.69 140.733 263.189 127.288 277.312 96.6884L273.68 95.0122ZM147.809 108.274C141.697 101.381 135.33 90.074 135.644 78.4972C135.8 72.7642 137.591 66.9219 141.929 61.4152C146.284 55.8876 153.282 50.6036 163.992 46.1567L162.458 42.4625C151.296 47.0969 143.671 52.7406 138.787 58.9398C133.887 65.1598 131.824 71.8435 131.646 78.3885C131.293 91.3679 138.341 103.626 144.817 110.928L147.809 108.274ZM163.992 46.1567C176.963 40.7709 192.225 42.7628 206.608 49.903C220.977 57.0362 234.243 69.2107 243.043 83.756C251.841 98.2969 256.1 115.07 252.72 131.456C249.349 147.798 238.316 164.069 215.921 177.538L217.982 180.966C241.137 167.04 252.998 149.908 256.637 132.264C260.268 114.664 255.652 96.8692 246.466 81.6854C237.282 66.506 223.452 53.7992 208.387 46.3202C193.335 38.8481 176.825 36.4968 162.458 42.4625L163.992 46.1567ZM215.921 177.538C179.912 199.194 136.907 205.95 97.6485 205.528C58.3997 205.107 23.0886 197.513 2.63514 190.663L1.36474 194.455C22.195 201.432 57.9196 209.102 97.6056 209.528C137.282 209.954 181.11 203.142 217.982 180.966L215.921 177.538Z" fill="#A4D9C1"/>
</svg>
