<svg width="286" height="211" viewBox="0 0 286 211" fill="none" xmlns="http://www.w3.org/2000/svg">
<path d="M139.37 109.601L140.867 110.928L139.37 109.601ZM122.459 44.3097L121.692 46.1568L122.459 44.3097ZM68.732 179.252L69.7628 177.538L68.732 179.252ZM284.575 190.769C285.564 191.261 285.966 192.462 285.474 193.451L277.447 209.562C276.955 210.551 275.754 210.953 274.765 210.46C273.777 209.968 273.374 208.767 273.867 207.778L281.002 193.457L266.68 186.323C265.692 185.83 265.29 184.629 265.782 183.641C266.275 182.652 267.475 182.25 268.464 182.742L284.575 190.769ZM69.7027 4.21073C54.3288 7.30378 33.09 15.6188 19.1459 30.3503C12.2038 37.6845 7.09978 46.5739 5.36514 57.1977C3.63063 67.8207 5.23694 80.3502 12.0037 95.0123L8.37184 96.6884C1.33668 81.4448 -0.468983 68.1064 1.41743 56.5531C3.3037 45.0005 8.85345 35.4053 16.2409 27.6006C30.9559 12.0545 53.0793 3.475 68.9138 0.289311L69.7027 4.21073ZM12.0037 95.0123C25.4852 124.224 48.6176 136.78 72.4713 137.5C96.4433 138.224 121.28 126.987 137.874 108.274L140.867 110.928C123.541 130.466 97.5893 142.26 72.3506 141.498C46.9937 140.733 22.4942 127.288 8.37184 96.6884L12.0037 95.0123ZM137.874 108.274C143.987 101.381 150.354 90.074 150.039 78.4972C149.883 72.7642 148.092 66.9219 143.754 61.4152C139.399 55.8876 132.402 50.6036 121.692 46.1568L123.226 42.4626C134.387 47.0969 142.012 52.7406 146.896 58.9398C151.796 65.1598 153.86 71.8435 154.038 78.3885C154.39 91.3679 147.342 103.626 140.867 110.928L137.874 108.274ZM121.692 46.1568C108.721 40.7709 93.4583 42.7628 79.0756 49.903C64.7068 57.0362 51.4406 69.2108 42.6401 83.756C33.8423 98.2969 29.5838 115.07 32.9637 131.456C36.3345 147.798 47.3673 164.069 69.7628 177.538L67.7012 180.966C44.5465 167.04 32.6855 149.908 29.0462 132.264C25.4159 114.664 30.031 96.8692 39.2178 81.6854C48.4019 66.506 62.2315 53.7993 77.2969 46.3202C92.3484 38.8481 108.858 36.4968 123.226 42.4626L121.692 46.1568ZM69.7628 177.538C105.771 199.194 148.777 205.95 188.035 205.528C227.284 205.107 262.595 197.513 283.048 190.663L284.319 194.455C263.488 201.432 227.764 209.102 188.078 209.528C148.401 209.954 104.573 203.142 67.7012 180.966L69.7628 177.538Z" fill="#EB8149"/>
</svg>
