<svg width="112" height="122" viewBox="0 0 112 122" fill="none" xmlns="http://www.w3.org/2000/svg">
<path id="Vector 2" d="M55.2557 56.954L54.4225 58.2014L55.2557 56.954ZM55.1612 26.6067L56.0707 27.7995L55.1612 26.6067ZM93.8931 79.1675L92.8179 78.1216L93.8931 79.1675ZM1.01153 108.456C0.388466 109.002 0.325974 109.95 0.87195 110.573L9.76912 120.726C10.3151 121.349 11.2628 121.412 11.8858 120.866C12.5089 120.32 12.5714 119.372 12.0254 118.749L4.11682 109.724L13.142 101.815C13.7651 101.269 13.8276 100.322 13.2816 99.6987C12.7356 99.0757 11.7879 99.0132 11.1649 99.5591L1.01153 108.456ZM73.5519 3.71362C80.5148 3.30227 90.5529 4.48237 98.1482 9.2054C101.918 11.5496 105.058 14.747 106.965 19.0417C108.873 23.3362 109.601 28.8475 108.349 35.9084L111.303 36.4323C112.639 28.8994 111.901 22.764 109.707 17.824C107.513 12.8842 103.916 9.25909 99.7324 6.65779C91.4216 1.4898 80.69 0.286685 73.375 0.718838L73.5519 3.71362ZM108.349 35.9084C105.861 49.939 97.4031 57.8716 87.3363 60.8535C77.1846 63.8605 65.2945 61.8553 56.0888 55.7067L54.4225 58.2014C64.3175 64.8104 77.1242 67.0072 88.1883 63.7299C99.3374 60.4275 108.615 51.5894 111.303 36.4323L108.349 35.9084ZM56.0888 55.7067C52.7154 53.4535 48.7945 49.3755 47.6592 44.507C47.1009 42.113 47.2057 39.4976 48.4091 36.7288C49.6204 33.9418 51.982 30.9169 56.0707 27.7995L54.2517 25.4138C49.8715 28.7536 47.1243 32.1588 45.6578 35.5329C44.1833 38.9252 44.0411 42.2017 44.7376 45.1883C46.1118 51.0812 50.707 55.7197 54.4225 58.2014L56.0888 55.7067ZM56.0707 27.7995C60.9128 24.1076 67.5771 23.2216 74.5305 24.6577C81.4727 26.0915 88.5231 29.8129 93.9255 35.0558C99.3251 40.2959 102.998 46.9714 103.387 54.3035C103.775 61.6022 100.922 69.7901 92.8179 78.1216L94.9683 80.2134C103.535 71.4061 106.823 62.4366 106.383 54.1443C105.944 45.8854 101.819 38.5362 96.0148 32.9029C90.213 27.2725 82.652 23.2718 75.1373 21.7197C67.6339 20.17 59.9958 21.0343 54.2517 25.4138L56.0707 27.7995ZM92.8179 78.1216C79.7443 91.5619 61.9427 99.3886 44.8959 103.687C27.8556 107.985 11.7083 108.721 2.09879 108.088L1.9014 111.081C11.8088 111.734 28.271 110.974 45.6295 106.596C62.9814 102.221 81.3679 94.1953 94.9683 80.2134L92.8179 78.1216Z" fill="#A4D9C1"/>
</svg>
