<svg width="101" height="114" viewBox="0 0 101 114" fill="none" xmlns="http://www.w3.org/2000/svg">
<path id="Vector 3" d="M48.1352 57.8088L49.2222 56.7751L48.1352 57.8088ZM20.8588 62.4362L22.1863 63.1346L20.8588 62.4362ZM73.9639 88.921L72.7535 88.0351L73.9639 88.921ZM86.041 1.21481C86.4746 0.508946 87.3984 0.288258 88.1043 0.721897L99.6071 7.78842C100.313 8.22206 100.534 9.14581 100.1 9.85168C99.6663 10.5575 98.7426 10.7782 98.0367 10.3446L87.812 4.06324L81.5307 14.2879C81.097 14.9938 80.1733 15.2145 79.4674 14.7809C78.7615 14.3472 78.5408 13.4235 78.9745 12.7176L86.041 1.21481ZM3.2214 82.4313C3.90848 88.7064 6.48775 97.4688 11.8577 103.499C14.5207 106.489 17.8467 108.783 21.9641 109.815C26.0818 110.847 31.1174 110.648 37.2518 108.438L38.2686 111.26C31.6863 113.631 26.0364 113.929 21.2349 112.725C16.4331 111.522 12.6061 108.85 9.61735 105.494C3.68388 98.8312 0.964878 89.3852 0.239222 82.7578L3.2214 82.4313ZM37.2518 108.438C49.4344 104.049 55.2407 95.2917 56.3827 85.8766C57.5353 76.3742 53.943 66.0927 47.0482 58.8425L49.2222 56.7751C56.6916 64.6296 60.6285 75.787 59.3609 86.2379C58.0826 96.776 51.5192 106.487 38.2686 111.26L37.2518 108.438ZM47.0482 58.8425C44.5258 56.19 40.2973 53.3413 35.7973 53.0843C33.5878 52.9581 31.2809 53.4515 28.9999 54.9426C26.7026 56.4443 24.3576 59.0077 22.1863 63.1346L19.5313 61.7377C21.8733 57.2865 24.528 54.2818 27.3584 52.4316C30.2049 50.5707 33.1534 49.9284 35.9683 50.0892C41.5171 50.406 46.4135 53.8217 49.2222 56.7751L47.0482 58.8425ZM22.1863 63.1346C19.6296 67.9938 19.839 74.0472 22.1757 80.0174C24.5086 85.9776 28.9055 91.6842 34.4152 95.6871C39.9213 99.6873 46.4432 101.922 53.0501 101.137C59.6249 100.355 66.5177 96.555 72.7535 88.0351L75.1743 89.8069C68.548 98.8605 60.9612 103.217 53.4042 104.116C45.8793 105.01 38.617 102.448 32.6519 98.1141C26.6905 93.7831 21.9293 87.6187 19.3821 81.1108C16.8388 74.6128 16.4464 67.601 19.5313 61.7377L22.1863 63.1346ZM72.7535 88.0351C82.8204 74.2806 87.1405 57.1693 88.4096 41.2688C89.6783 25.3746 87.8868 10.8316 85.8601 2.34853L88.778 1.65144C90.8744 10.4264 92.695 25.2851 91.4001 41.5075C90.1058 57.7236 85.6867 75.4439 75.1743 89.8069L72.7535 88.0351Z" fill="#EB8149"/>
</svg>
