<svg width="212" height="133" viewBox="0 0 212 133" fill="none" xmlns="http://www.w3.org/2000/svg">
<path id="Vector 4" d="M101.378 66.5498L103.087 67.5881L101.378 66.5498ZM81.8704 24.3525L81.4457 26.3069L81.8704 24.3525ZM62.0477 122.482L62.7558 120.612L62.0477 122.482ZM210.019 103.122C211.08 103.43 211.69 104.539 211.382 105.6L206.362 122.886C206.054 123.947 204.945 124.557 203.884 124.249C202.823 123.941 202.213 122.831 202.521 121.771L206.983 106.405L191.618 101.943C190.557 101.635 189.947 100.526 190.255 99.465C190.563 98.4043 191.672 97.7941 192.733 98.1021L210.019 103.122ZM41.3849 4.23111C31.4072 8.1946 18.1552 16.3835 10.6076 27.945C6.8576 33.6893 4.53914 40.2259 4.66813 47.4981C4.79711 54.7696 7.37614 62.9509 13.7132 71.9798L10.4391 74.2778C3.73414 64.7246 0.81445 55.7829 0.668759 47.5691C0.523076 39.356 3.154 32.0452 7.25814 25.7584C15.4188 13.2578 29.494 4.65059 39.9082 0.513672L41.3849 4.23111ZM13.7132 71.9798C26.316 89.936 43.3161 95.5057 59.3507 93.0919C75.5024 90.6606 90.808 80.0985 99.6686 65.5114L103.087 67.5881C93.6541 83.1178 77.351 94.4274 59.9462 97.0474C42.4244 99.685 23.9205 93.4857 10.4391 74.2778L13.7132 71.9798ZM99.6686 65.5114C102.921 60.1565 105.769 51.8687 104.176 44.2697C103.39 40.5244 101.521 36.9039 98.0066 33.7969C94.4723 30.6724 89.1819 27.988 81.4457 26.3069L82.2951 22.3981C90.5091 24.1831 96.481 27.1092 100.656 30.8001C104.851 34.5085 107.138 38.9083 108.09 43.4486C109.972 52.4208 106.624 61.7657 103.087 67.5881L99.6686 65.5114ZM81.4457 26.3069C72.2155 24.3012 62.2907 27.4416 53.5087 33.9854C44.7393 40.5198 37.3127 50.3126 33.1763 61.1528C29.0416 71.9882 28.2448 83.7213 32.4824 94.2393C36.7032 104.716 46.0381 114.283 62.7558 120.612L61.3397 124.353C43.7934 117.71 33.4897 107.443 28.7722 95.7341C24.0715 84.0669 25.0366 71.2642 29.4391 59.7268C33.8398 48.1941 41.7256 37.7771 51.1187 30.7779C60.4994 23.7881 71.5873 20.0713 82.2951 22.3981L81.4457 26.3069ZM62.7558 120.612C89.6956 130.81 119.566 130.11 146.074 125.003C172.573 119.898 195.524 110.424 208.498 103.29L210.425 106.795C197.103 114.121 173.759 123.743 146.831 128.931C119.911 134.117 89.2221 134.908 61.3397 124.353L62.7558 120.612Z" fill="#B3461F"/>
</svg>
