<svg width="90" height="136" viewBox="0 0 90 136" fill="none" xmlns="http://www.w3.org/2000/svg">
<path id="Vector 2" d="M39.5094 62.199L39.0343 63.6218L39.5094 62.199ZM31.4235 32.9486L32.6151 33.8597L31.4235 32.9486ZM82.6339 73.4492L81.3211 72.7235L82.6339 73.4492ZM0.749146 126.172C0.291928 126.863 0.481305 127.794 1.17213 128.251L12.4298 135.702C13.1206 136.159 14.0513 135.97 14.5085 135.279C14.9658 134.588 14.7764 133.657 14.0856 133.2L4.07872 126.577L10.7017 116.57C11.1589 115.879 10.9695 114.949 10.2787 114.491C9.58785 114.034 8.65718 114.224 8.19996 114.914L0.749146 126.172ZM43.1336 6.01932C49.7421 3.78822 59.7366 2.28218 68.3078 4.83747C72.562 6.10576 76.4331 8.36302 79.4048 12.0036C82.3762 15.6438 84.531 20.7684 85.183 27.9099L88.1706 27.6371C87.475 20.0183 85.147 14.294 81.7288 10.1065C78.3109 5.91926 73.8856 3.36989 69.1649 1.96251C59.7862 -0.833524 49.1168 0.832982 42.174 3.17694L43.1336 6.01932ZM85.183 27.9099C86.4786 42.1004 80.4096 51.9809 71.484 57.5094C62.4831 63.0845 50.4848 64.2825 39.9845 60.7762L39.0343 63.6218C50.3208 67.3906 63.2538 66.1361 73.0637 60.0598C82.949 53.9369 89.5702 42.967 88.1706 27.6371L85.183 27.9099ZM39.9845 60.7762C36.1366 59.4914 31.2799 56.5904 28.9022 52.1929C27.733 50.0305 27.145 47.4799 27.5765 44.4919C28.0108 41.4843 29.4921 37.9441 32.6151 33.8597L30.2319 32.0375C26.8862 36.4132 25.1332 40.4218 24.6073 44.0631C24.0786 47.7239 24.8046 50.9221 26.2633 53.6198C29.1413 58.9425 34.7962 62.2066 39.0343 63.6218L39.9845 60.7762ZM32.6151 33.8597C36.3136 29.0226 42.509 26.4122 49.5952 25.9658C56.6699 25.5201 64.4515 27.2526 71.0444 30.8871C77.6337 34.5197 82.935 39.9918 85.2423 46.9623C87.5391 53.9011 86.9442 62.5513 81.3211 72.7235L83.9467 74.1749C89.8908 63.4218 90.6998 53.9029 88.0903 46.0196C85.4913 38.168 79.5763 32.165 72.4927 28.2599C65.4126 24.3568 57.0646 22.4893 49.4065 22.9717C41.7599 23.4534 34.6193 26.2994 30.2319 32.0375L32.6151 33.8597ZM81.3211 72.7235C72.2501 89.1331 57.1392 101.373 41.827 110.011C26.5207 118.645 11.1379 123.61 1.7009 125.53L2.2991 128.47C12.0286 126.49 27.7089 121.419 43.301 112.624C58.8872 103.831 74.5101 91.2458 83.9467 74.1749L81.3211 72.7235Z" fill="#A4D9C1"/>
</svg>
