<svg width="117" height="141" viewBox="0 0 117 141" fill="none" xmlns="http://www.w3.org/2000/svg">
<path id="Vector 6" d="M56.1578 65.7028L55.44 67.02L56.1578 65.7028ZM53.0058 31.894L54.0172 33.0017L53.0058 31.894ZM101.513 86.6109L100.35 85.6643L101.513 86.6109ZM0.914874 128.618C0.342838 129.217 0.364878 130.167 0.964099 130.739L10.729 140.061C11.3282 140.633 12.2777 140.611 12.8497 140.012C13.4218 139.412 13.3997 138.463 12.8005 137.891L4.12061 129.605L12.4067 120.925C12.9787 120.326 12.9567 119.376 12.3575 118.804C11.7583 118.232 10.8088 118.254 10.2367 118.853L0.914874 128.618ZM71.2064 4.37572C78.958 3.22106 90.323 3.53453 99.3206 8.06487C103.79 10.3153 107.645 13.5892 110.226 18.2221C112.807 22.8545 114.177 28.9602 113.486 36.9812L116.475 37.2388C117.207 28.7392 115.772 22.0121 112.847 16.7621C109.923 11.5126 105.573 7.85435 100.67 5.38535C90.9209 0.476738 78.8644 0.201893 70.7644 1.40846L71.2064 4.37572ZM113.486 36.9812C112.111 52.9305 103.425 62.6702 92.4245 67.0203C81.3418 71.403 67.8124 70.3455 56.8755 64.3857L55.44 67.02C67.1033 73.3756 81.5612 74.5423 93.5277 69.8101C105.577 65.0452 115.002 54.3309 116.475 37.2388L113.486 36.9812ZM56.8755 64.3857C52.8618 62.1985 48.0328 58.0143 46.2573 52.6427C45.3826 49.9963 45.2357 47.0326 46.3135 43.7896C47.3976 40.5278 49.7504 36.8975 54.0172 33.0017L51.9944 30.7863C47.4568 34.9292 44.7529 38.973 43.4666 42.8435C42.174 46.7327 42.343 50.3594 43.4089 53.5842C45.5147 59.955 51.0661 64.6365 55.44 67.02L56.8755 64.3857ZM54.0172 33.0017C59.1012 28.3598 66.5094 26.7048 74.4492 27.617C82.3774 28.5279 90.6529 31.9873 97.2354 37.3133C103.815 42.6369 108.614 49.748 109.793 57.934C110.967 66.0865 108.584 75.5427 100.35 85.6643L102.677 87.5575C111.33 76.9205 114.078 66.6457 112.762 57.5065C111.451 48.4007 106.14 40.6592 99.1225 34.9811C92.1078 29.3055 83.2994 25.6141 74.7916 24.6366C66.2955 23.6605 57.9158 25.3798 51.9944 30.7863L54.0172 33.0017ZM100.35 85.6643C87.0785 101.978 67.9611 112.487 49.3476 118.981C30.7406 125.472 12.7726 127.903 1.96505 128.154L2.03467 131.154C13.1402 130.896 31.4192 128.413 50.3358 121.813C69.2458 115.216 88.9286 104.458 102.677 87.5575L100.35 85.6643Z" fill="#A4D9C1"/>
</svg>
