<svg width="154" height="84" viewBox="0 0 154 84" fill="none" xmlns="http://www.w3.org/2000/svg">
<path id="Vector 5" d="M72.4846 36.881L73.9025 37.3706L72.4846 36.881ZM52.9852 11.0376L52.9842 12.5376L52.9852 11.0376ZM53.9638 80.7487L54.1858 79.2653L53.9638 80.7487ZM151.827 45.6451C152.654 45.7024 153.277 46.4189 153.22 47.2453L152.286 60.7129C152.228 61.5394 151.512 62.1629 150.686 62.1055C149.859 62.0482 149.236 61.3318 149.293 60.5053L150.123 48.5341L138.152 47.7037C137.326 47.6464 136.702 46.93 136.759 46.1035C136.817 45.2771 137.533 44.6536 138.36 44.7109L151.827 45.6451ZM22.523 3.40175C16.327 7.56362 8.53421 15.0756 5.11282 24.0294C3.41378 28.4757 2.80349 33.2445 3.95787 38.1505C5.1121 43.0559 8.0606 48.2259 13.6925 53.425L11.6575 55.6293C5.67272 50.1044 2.35377 44.4311 1.03761 38.8376C-0.278409 33.2446 0.437962 27.8588 2.31044 22.9585C6.03208 13.219 14.3618 5.26972 20.8502 0.911401L22.523 3.40175ZM13.6925 53.425C24.8877 63.7599 37.2366 65.0359 47.7563 61.0429C58.359 57.0185 67.1968 47.5981 71.0668 36.3914L73.9025 37.3706C69.7625 49.3593 60.3122 59.4859 48.8209 63.8477C37.2466 68.2409 23.6956 66.7423 11.6575 55.6293L13.6925 53.425ZM71.0668 36.3914C72.4862 32.2809 73.1955 26.2507 71.0054 21.3481C69.9273 18.9348 68.1368 16.7642 65.3079 15.1797C62.4617 13.5855 58.4844 12.541 52.9842 12.5376L52.9861 9.53765C58.853 9.54126 63.3682 10.6547 66.774 12.5623C70.1971 14.4796 72.4179 17.1549 73.7445 20.1245C76.3638 25.988 75.4558 32.8724 73.9025 37.3706L71.0668 36.3914ZM52.9842 12.5376C46.4468 12.5336 40.1822 16.1129 35.1832 21.8465C30.1919 27.5713 26.5898 35.3126 25.376 43.2809C24.1627 51.2454 25.3488 59.3196 29.7653 65.8259C34.1629 72.3042 41.8978 77.4267 54.1858 79.2653L53.7418 82.2322C40.7967 80.2953 32.2406 74.8139 27.2832 67.5108C22.3447 60.2356 21.112 51.3507 22.4102 42.8291C23.7077 34.3113 27.5473 26.0395 32.922 19.875C38.2889 13.7193 45.3147 9.53293 52.9861 9.53765L52.9842 12.5376ZM54.1858 79.2653C73.9984 82.2297 94.2042 77.3561 111.483 69.9758C128.755 62.5982 142.969 52.7719 150.739 46.01L152.708 48.273C144.714 55.2305 130.235 65.2283 112.661 72.7346C95.0939 80.2383 74.3021 85.3086 53.7418 82.2322L54.1858 79.2653Z" fill="#EB8149"/>
</svg>
