<svg width="77" height="24" viewBox="0 0 77 24" fill="none" xmlns="http://www.w3.org/2000/svg">
<g id="work webcam">
<path d="M0.684804 4.0678V0H4.74956V4.0678C4.74956 4.44746 4.87828 4.77288 5.13571 5.04407C5.40669 5.3017 5.73187 5.43051 6.11125 5.43051H7.47294V0H11.5377V4.0678C11.5377 4.44746 11.6664 4.77288 11.9238 5.04407C12.1948 5.3017 12.5132 5.43051 12.8791 5.43051H14.2408C14.6066 5.43051 14.925 5.29492 15.196 5.02373C15.467 4.75254 15.6025 4.4339 15.6025 4.0678C15.6025 3.68814 15.467 3.36949 15.196 3.11186C14.9385 2.84068 14.6201 2.70508 14.2408 2.70508V0H18.3055C19.4301 0 20.3853 0.4 21.1712 1.2C21.9706 1.98644 22.3703 2.94237 22.3703 4.0678C22.3703 5.19322 21.9706 6.15593 21.1712 6.95593C20.3853 7.74237 19.4301 8.13559 18.3055 8.13559H4.66826C3.57078 8.13559 2.62911 7.73559 1.84326 6.93559C1.07096 6.12203 0.684804 5.1661 0.684804 4.0678Z" fill="#FFF6ED"/>
<path d="M33.9131 4.0678C33.9131 3.68814 33.7776 3.36949 33.5066 3.11186C33.2491 2.84068 32.9307 2.70508 32.5514 2.70508H29.8483C29.4689 2.70508 29.1437 2.84068 28.8728 3.11186C28.6153 3.36949 28.4866 3.68814 28.4866 4.0678C28.4866 4.4339 28.6153 4.75254 28.8728 5.02373C29.1437 5.29492 29.4689 5.43051 29.8483 5.43051H32.5514C32.9307 5.43051 33.2491 5.3017 33.5066 5.04407C33.7776 4.77288 33.9131 4.44746 33.9131 4.0678ZM28.4053 8.13559C27.3078 8.13559 26.3662 7.73559 25.5803 6.93559C24.808 6.12203 24.4219 5.1661 24.4219 4.0678C24.4219 2.92881 24.8148 1.9661 25.6006 1.17966C26.3865 0.39322 27.3485 0 28.4866 0H36.6161C37.7542 0 38.7162 0.39322 39.5021 1.17966C40.2879 1.9661 40.6809 2.92881 40.6809 4.0678C40.6809 5.19322 40.2812 6.15593 39.4818 6.95593C38.6959 7.74237 37.7407 8.13559 36.6161 8.13559H28.4053Z" fill="#FFF6ED"/>
<path d="M50.3629 2.70508H47.6599C47.2805 2.70508 46.9553 2.84068 46.6843 3.11186C46.4269 3.36949 46.2982 3.68814 46.2982 4.0678V8.13559H42.2334V4.0678C42.2334 2.92881 42.6263 1.9661 43.4122 1.17966C44.2116 0.39322 45.1736 0 46.2982 0H54.4277C55.5658 0 56.5278 0.39322 57.3137 1.17966C58.0995 1.9661 58.4924 2.92881 58.4924 4.0678H51.7246C51.7246 3.68814 51.5959 3.36949 51.3385 3.11186C51.081 2.84068 50.7559 2.70508 50.3629 2.70508Z" fill="#FFF6ED"/>
<path d="M76.307 4.0678C76.307 5.19322 75.9141 6.15593 75.1282 6.95593C74.3424 7.74237 73.3804 8.13559 72.2423 8.13559H70.9009C70.9009 8.89492 71.1583 9.5322 71.6732 10.0475C72.2016 10.5763 72.8452 10.8407 73.604 10.8407V12.2034C72.1135 12.2034 70.8331 11.8034 69.7628 11.0034C68.7059 10.2169 68.1775 9.26102 68.1775 8.13559H65.4541C65.1018 8.13559 64.7902 8.26441 64.5192 8.52203C64.2482 8.79322 64.1128 9.10509 64.1128 9.45763V12.2034H60.048V0H64.1128V4.0678C64.1128 4.44746 64.2482 4.77288 64.5192 5.04407C64.7902 5.3017 65.1086 5.43051 65.4744 5.43051H68.1775C68.5569 5.43051 68.8753 5.3017 69.1327 5.04407C69.4037 4.77288 69.5392 4.44746 69.5392 4.0678C69.5392 3.68814 69.4105 3.36949 69.153 3.11186C68.8956 2.84068 68.5704 2.70508 68.1775 2.70508V0H72.2423C73.3804 0 74.3424 0.4 75.1282 1.2C75.9141 1.98644 76.307 2.94237 76.307 4.0678Z" fill="#FFF6ED"/>
<path d="M0 18.7119V16.0678H2.64209V18.7119C2.64209 18.9586 2.72576 19.1702 2.89309 19.3464C3.06923 19.5139 3.2806 19.5976 3.52719 19.5976H4.41229V16.0678H7.05438V18.7119C7.05438 18.9586 7.13805 19.1702 7.30538 19.3464C7.48152 19.5139 7.68848 19.5976 7.92627 19.5976H8.81137C9.04916 19.5976 9.25612 19.5095 9.43226 19.3332C9.6084 19.1569 9.69647 18.9498 9.69647 18.7119C9.69647 18.4651 9.6084 18.258 9.43226 18.0905C9.26493 17.9142 9.05797 17.8261 8.81137 17.8261V16.0678H11.4535C12.1844 16.0678 12.8053 16.3278 13.3161 16.8478C13.8357 17.359 14.0956 17.9803 14.0956 18.7119C14.0956 19.4434 13.8357 20.0692 13.3161 20.5892C12.8053 21.1003 12.1844 21.3559 11.4535 21.3559H2.58925C1.87588 21.3559 1.2638 21.0959 0.752996 20.5759C0.250999 20.0471 0 19.4258 0 18.7119Z" fill="#FFF6ED"/>
<path d="M20.7529 17.8261H18.9959C18.7493 17.8261 18.5379 17.9142 18.3618 18.0905C18.1945 18.258 18.1108 18.4651 18.1108 18.7119C18.1108 18.9498 18.1945 19.1569 18.3618 19.3332C18.5379 19.5095 18.7493 19.5976 18.9959 19.5976H20.7529C20.9995 19.5976 21.2065 19.5139 21.3738 19.3464C21.5499 19.1702 21.638 18.9586 21.638 18.7119C21.638 18.4651 21.5499 18.258 21.3738 18.0905C21.2065 17.9142 20.9995 17.8261 20.7529 17.8261ZM26.0371 18.7119C26.0371 19.4434 25.7773 20.0692 25.2577 20.5892C24.7469 21.1003 24.126 21.3559 23.395 21.3559H18.9959C18.9959 21.8407 19.1676 22.2549 19.5111 22.5986C19.8546 22.9424 20.2685 23.1142 20.7529 23.1142V24C19.8898 24 19.1148 23.7797 18.4279 23.339C17.6264 22.8366 17.2257 22.1756 17.2257 21.3559V21.2105C16.6973 21.0166 16.2701 20.6949 15.9443 20.2454C15.6272 19.7871 15.4687 19.2759 15.4687 18.7119C15.4687 17.9715 15.7241 17.3458 16.2349 16.8346C16.7457 16.3234 17.371 16.0678 18.1108 16.0678H23.395C24.1348 16.0678 24.7601 16.3234 25.2709 16.8346C25.7817 17.3458 26.0371 17.9715 26.0371 18.7119Z" fill="#FFF6ED"/>
<path d="M30.8226 19.5976H32.5928C32.8394 19.5976 33.0463 19.5139 33.2137 19.3464C33.381 19.1702 33.4646 18.9586 33.4646 18.7119C33.4646 18.4651 33.3766 18.258 33.2004 18.0905C33.0331 17.9142 32.8306 17.8261 32.5928 17.8261H30.8226C30.5848 17.8261 30.3778 17.9142 30.2017 18.0905C30.0343 18.258 29.9507 18.4651 29.9507 18.7119C29.9507 18.9586 30.0343 19.1702 30.2017 19.3464C30.369 19.5139 30.576 19.5976 30.8226 19.5976ZM37.8769 18.7119C37.8769 19.4434 37.6171 20.0692 37.0975 20.5892C36.5867 21.1003 35.9658 21.3559 35.2349 21.3559H29.9507C29.2109 21.3559 28.5856 21.1003 28.0748 20.5892C27.564 20.0692 27.3086 19.4434 27.3086 18.7119C27.3086 18.1566 27.4715 17.6454 27.7974 17.1783C28.1232 16.7112 28.546 16.3895 29.0656 16.2132V16.0678C29.0656 15.3363 29.409 14.7149 30.096 14.2037C30.7829 13.6837 31.6152 13.4237 32.5928 13.4237V14.3095C32.0996 14.3095 31.6812 14.4814 31.3378 14.8251C30.9943 15.16 30.8226 15.5742 30.8226 16.0678H35.2349C35.9658 16.0678 36.5867 16.3278 37.0975 16.8478C37.6171 17.359 37.8769 17.9803 37.8769 18.7119Z" fill="#FFF6ED"/>
<path d="M41.7313 16.0678H47.0155C47.7553 16.0678 48.3806 16.3234 48.8914 16.8346C49.4022 17.3458 49.6576 17.9715 49.6576 18.7119H45.2585C45.2585 18.4651 45.1704 18.258 44.9943 18.0905C44.8269 17.9142 44.62 17.8261 44.3734 17.8261H42.6164C42.3698 17.8261 42.1584 17.9142 41.9823 18.0905C41.815 18.258 41.7313 18.4651 41.7313 18.7119C41.7313 18.9498 41.815 19.1569 41.9823 19.3332C42.1584 19.5095 42.3698 19.5976 42.6164 19.5976H49.5123C49.3361 20.1176 49.0147 20.5407 48.5479 20.8668C48.0811 21.1929 47.5703 21.3559 47.0155 21.3559H41.6785C40.9651 21.3559 40.353 21.0959 39.8422 20.5759C39.3402 20.0471 39.0892 19.4258 39.0892 18.7119C39.0892 17.9715 39.3446 17.3458 39.8554 16.8346C40.3662 16.3234 40.9915 16.0678 41.7313 16.0678Z" fill="#FFF6ED"/>
<path d="M58.0382 17.8261H56.2812C56.0434 17.8261 55.8364 17.9142 55.6603 18.0905C55.4841 18.2668 55.3961 18.4739 55.3961 18.7119C55.3961 18.9498 55.4797 19.1569 55.6471 19.3332C55.8232 19.5095 56.0346 19.5976 56.2812 19.5976H58.0514C58.298 19.5976 58.5049 19.5139 58.6723 19.3464C58.8396 19.1702 58.9233 18.9586 58.9233 18.7119C58.9233 18.4651 58.8352 18.258 58.659 18.0905C58.4829 17.9142 58.2759 17.8261 58.0382 17.8261ZM58.9761 16.0678C59.6895 16.0678 60.2971 16.3322 60.7991 16.861C61.3011 17.381 61.5521 17.998 61.5521 18.7119V21.3559H58.9233V20.4966C58.9233 20.7258 58.8352 20.9285 58.659 21.1047C58.4917 21.2722 58.2936 21.3559 58.0646 21.3559H53.6391C52.8993 21.3559 52.274 21.1003 51.7632 20.5892C51.2524 20.0692 50.997 19.4434 50.997 18.7119C50.997 17.9803 51.2524 17.359 51.7632 16.8478C52.274 16.3278 52.8993 16.0678 53.6391 16.0678H58.9761Z" fill="#FFF6ED"/>
<path d="M62.9044 18.7119C62.9044 17.998 63.1554 17.381 63.6574 16.861C64.1683 16.3322 64.7803 16.0678 65.4937 16.0678H74.3579C75.0889 16.0678 75.7098 16.3278 76.2206 16.8478C76.7402 17.359 77 17.9803 77 18.7119C77 19.4434 76.7402 20.0692 76.2206 20.5892C75.7098 21.1003 75.0889 21.3559 74.3579 21.3559H71.7158V19.5976C71.9624 19.5976 72.1694 19.5139 72.3367 19.3464C72.5128 19.1702 72.6009 18.9586 72.6009 18.7119C72.6009 18.4739 72.5128 18.2668 72.3367 18.0905C72.1606 17.9142 71.9536 17.8261 71.7158 17.8261H70.8307C70.5929 17.8261 70.386 17.9142 70.2098 18.0905C70.0425 18.258 69.9588 18.4651 69.9588 18.7119V21.3559H67.3167V17.8261H66.4316C66.185 17.8261 65.9737 17.9142 65.7975 18.0905C65.6302 18.258 65.5465 18.4651 65.5465 18.7119V21.3559H62.9044V18.7119Z" fill="#FFF6ED"/>
</g>
</svg>
